<svg width="115" height="32" viewBox="0 0 115 32" xmlns="http://www.w3.org/2000/svg">
    <g fill-rule="nonzero" fill="none">
        <path d="M34.188 28.041c0 2.186-1.892 3.959-4.23 3.959H4.228C1.892 32 0 30.227 0 28.041V3.96C0 1.773 1.892 0 4.228 0h25.73c2.336 0 4.23 1.773 4.23 3.959V28.04z" fill="#282829"/>
        <path d="M25.31 4.076c-3.222 0-5.833 2.498-5.833 5.58 0 3.08 2.611 5.579 5.832 5.579 3.221 0 5.832-2.498 5.832-5.58.002-3.081-2.609-5.58-5.832-5.58zm0 8.527c-1.702 0-3.082-1.319-3.082-2.948s1.38-2.948 3.081-2.948c1.703 0 3.082 1.321 3.082 2.948.002 1.63-1.379 2.948-3.082 2.948z" fill="#00AEEF"/>
        <path d="M13.04 17.024H5.85c-1.964 0-2.802 1.148-2.802 2.564v5.337c0 1.415.838 2.564 2.802 2.564h7.192c2.888 0 5.057-2.342 5.057-5.233-.002-2.89-2.169-5.232-5.057-5.232zm-.246 7.856H6.787c-.622 0-.887-.364-.887-.812v-3.621c0-.448.265-.812.887-.812h6.007c1.449 0 2.447 1.173 2.447 2.621.002 1.45-.998 2.624-2.447 2.624z" fill="#FFF"/>
        <path d="M20.079 21.944v2.74c0 1.965 1.148 2.803 2.562 2.803h5.337c1.415 0 2.563-.838 2.563-2.802v-2.74a5.23 5.23 0 0 0-5.23-5.231 5.228 5.228 0 0 0-5.232 5.23zm7.858.245v1.555c0 .62-.364.887-.812.887h-3.622c-.447 0-.811-.265-.811-.887v-1.555a2.622 2.622 0 0 1 5.245 0z" fill="#00AEEF"/>
        <path d="M15.86 4.784c-1.27-.87-2.961-.659-4.224.128-.434.269-.814.552-1.354.54-.543.012-.923-.273-1.354-.54-1.263-.787-2.954-.996-4.224-.128-1.002.687-1.657 1.903-1.657 3.201v5.179a1.684 1.684 0 1 0 3.369 0V8.322c0-.853.77-1.187 1.489-.89.828.344 1.434.781 2.377.785.943-.004 1.549-.441 2.375-.785.719-.297 1.489.037 1.489.89v4.842a1.684 1.684 0 1 0 3.37 0V7.985c0-1.298-.656-2.512-1.657-3.2z" fill="#FFF"/>
        <g fill="#282829">
            <path d="M114.665 10.013a2.49 2.49 0 0 0-2.491-2.488 2.49 2.49 0 0 0-2.494 2.488V22.09c0 .45.143.82.429 1.113.333.317.688.475 1.066.475h1.995c.378 0 .733-.158 1.066-.475.286-.293.43-.663.43-1.113V10.013zM77.406 7.525c-4.809 0-8.706 3.729-8.706 8.328 0 4.6 3.897 8.328 8.706 8.328 4.81 0 8.707-3.728 8.707-8.328.002-4.597-3.897-8.328-8.707-8.328zm0 12.728c-2.539 0-4.6-1.97-4.6-4.4 0-2.43 2.061-4.4 4.6-4.4 2.542 0 4.6 1.97 4.6 4.4.002 2.432-2.058 4.4-4.6 4.4zM98.93 7.991h-5.32c-2.93 0-4.184 1.712-4.184 3.825v7.967c0 2.112 1.253 3.825 4.185 3.825h5.318a7.81 7.81 0 0 0 0-15.617zm-.368 11.726H95.01c-.927 0-1.325-.542-1.325-1.21v-5.405c0-.667.396-1.21 1.325-1.21h3.552a3.912 3.912 0 1 1 0 7.825zM62.788 7.687a4.222 4.222 0 0 0-4.31.769l-4.68 3.86.002-.002a.85.85 0 0 1-1.203 0l.002.002-4.68-3.86a4.223 4.223 0 0 0-4.308-.769c-1.582.612-2.605 2.077-2.605 3.737v10.23a2.528 2.528 0 0 0 5.054 0v-7.327c0-.47.322-.584.647-.319l2.638 2.178a5.572 5.572 0 0 0 3.851 1.518c1.45 0 2.813-.538 3.85-1.516l2.64-2.178c.322-.265.645-.152.645.319v7.328a2.528 2.528 0 0 0 5.054 0v-10.23c.006-1.663-1.017-3.13-2.597-3.74z"/>
        </g>
    </g>
</svg>
