<svg width="86" height="24" viewBox="0 0 86 24" xmlns="http://www.w3.org/2000/svg">
    <g fill-rule="nonzero" fill="none">
        <path d="M25.64 21.031c0 1.64-1.418 2.969-3.171 2.969H3.17C1.419 24 0 22.67 0 21.031V2.969C0 1.329 1.419 0 3.17 0H22.47c1.751 0 3.172 1.33 3.172 2.969v18.062z" fill="#282829"/>
        <path d="M18.982 3.057c-2.416 0-4.374 1.873-4.374 4.184 0 2.312 1.958 4.185 4.374 4.185 2.416 0 4.374-1.873 4.374-4.185.002-2.31-1.957-4.184-4.374-4.184zm0 6.395c-1.276 0-2.311-.989-2.311-2.21 0-1.222 1.035-2.212 2.31-2.212 1.278 0 2.312.991 2.312 2.211.001 1.222-1.034 2.211-2.311 2.211z" fill="#00AEEF"/>
        <path d="M9.78 12.768H4.387c-1.472 0-2.101.861-2.101 1.923v4.003c0 1.061.629 1.923 2.101 1.923h5.395c2.166 0 3.793-1.757 3.793-3.925-.002-2.168-1.627-3.924-3.793-3.924zm-.184 5.892H5.09c-.467 0-.666-.273-.666-.609v-2.716c0-.336.199-.609.666-.609h4.505c1.086 0 1.835.88 1.835 1.966.001 1.088-.75 1.968-1.835 1.968z" fill="#FFF"/>
        <path d="M15.06 16.458v2.055c0 1.473.86 2.102 1.92 2.102h4.003c1.062 0 1.923-.629 1.923-2.102v-2.055a3.923 3.923 0 0 0-7.847 0zm5.892.183v1.167c0 .465-.272.665-.608.665h-2.716c-.336 0-.61-.198-.61-.665V16.64a1.967 1.967 0 0 1 3.933 0z" fill="#00AEEF"/>
        <path d="M11.894 3.588c-.952-.653-2.22-.494-3.167.096-.325.202-.61.414-1.016.405-.406.01-.691-.205-1.015-.405-.948-.59-2.216-.747-3.168-.096-.752.515-1.243 1.427-1.243 2.4v3.885a1.263 1.263 0 1 0 2.527 0V6.242c0-.64.577-.891 1.117-.668.62.258 1.075.586 1.782.589.708-.003 1.162-.331 1.781-.589.54-.223 1.117.028 1.117.668v3.631a1.263 1.263 0 1 0 2.527 0V5.989c0-.974-.491-1.884-1.242-2.4z" fill="#FFF"/>
        <g fill="#282829">
            <path d="M86 7.51c0-1.03-.838-1.866-1.87-1.866-1.034 0-1.87.835-1.87 1.866v9.058c0 .337.108.614.322.835.25.237.516.355.8.355h1.495c.284 0 .55-.118.8-.355.214-.22.322-.498.322-.835V7.51zM58.055 5.644c-3.607 0-6.53 2.796-6.53 6.246 0 3.45 2.923 6.246 6.53 6.246s6.53-2.796 6.53-6.246c.001-3.448-2.923-6.246-6.53-6.246zm0 9.546c-1.905 0-3.45-1.477-3.45-3.3 0-1.823 1.545-3.3 3.45-3.3 1.906 0 3.45 1.477 3.45 3.3.001 1.824-1.544 3.3-3.45 3.3zM74.197 5.993h-3.989c-2.198 0-3.138 1.284-3.138 2.87v5.974c0 1.584.94 2.87 3.138 2.87h3.99a5.857 5.857 0 0 0 0-11.714zm-.276 8.795h-2.664c-.695 0-.993-.407-.993-.908V9.827c0-.5.297-.908.993-.908h2.664a2.935 2.935 0 0 1 0 5.869zM47.091 5.765a3.167 3.167 0 0 0-3.232.577l-3.51 2.895.001-.002a.638.638 0 0 1-.903 0l.002.002-3.51-2.895a3.167 3.167 0 0 0-3.23-.577c-1.187.46-1.954 1.558-1.954 2.803v7.673a1.896 1.896 0 0 0 3.79 0v-5.496c0-.353.242-.437.485-.239l1.978 1.633a4.18 4.18 0 0 0 2.89 1.139c1.087 0 2.109-.404 2.887-1.137l1.98-1.633c.241-.199.483-.114.483.239v5.495a1.896 1.896 0 0 0 3.79 0V8.57c.005-1.247-.762-2.347-1.947-2.805z"/>
        </g>
    </g>
</svg>
